<svg width="40" height="94" viewBox="0 0 40 94" fill="none" xmlns="http://www.w3.org/2000/svg">
<path d="M36.1872 66.9344C36.2245 66.8071 36.2613 66.6948 36.2998 66.5768C36.3383 66.4605 36.378 66.3442 36.4195 66.229C36.5013 65.9981 36.5884 65.7695 36.6796 65.5421C36.8628 65.0879 37.0642 64.6388 37.2936 64.1985C37.5235 63.7587 37.7795 63.3264 38.0865 62.9133C38.3946 62.503 38.7514 62.1037 39.2302 61.7866L39.0133 62.2027L38.2317 43.8279L38.3549 44.1242C37.6705 43.3835 36.9688 42.6463 36.2648 41.9171C35.5596 41.1875 34.8479 40.4636 34.1297 39.746C32.6926 38.3115 31.2306 36.9025 29.7325 35.5328C28.2338 34.1648 26.7014 32.8328 25.1037 31.5921C24.3049 30.9729 23.4883 30.3781 22.645 29.8341C22.2237 29.5627 21.7952 29.3047 21.3585 29.0709C20.9223 28.8377 20.4767 28.6276 20.0269 28.4656L20.6817 28.0183L20.6586 38.8566L20.6527 41.5659C20.6503 42.4692 20.6692 43.3725 20.6734 44.2758C20.6764 45.1791 20.6574 46.0823 20.645 46.9851C20.6301 47.8883 20.6106 48.7916 20.591 49.6944C20.5531 51.5009 20.5092 53.3069 20.4891 55.1135C20.4666 56.9201 20.4541 58.7261 20.4506 60.5327L20.4387 65.9518L20.4103 71.371L19.8538 71.1737C20.1152 70.9 20.3724 70.6228 20.6284 70.3444C20.8844 70.0667 21.1392 69.7872 21.3922 69.5065L22.149 68.6629C22.4008 68.3816 22.6462 68.0946 22.8637 67.785L22.8115 67.9262V67.9256C22.7789 67.1497 22.7505 66.3742 22.728 65.5983C22.7037 64.8223 22.6817 64.0469 22.6515 63.2709C22.6213 62.4949 22.5893 61.7195 22.568 60.9435C22.5472 60.1675 22.5419 59.3916 22.5484 58.6156L22.5531 58.6769C22.5336 58.5345 22.5508 58.4049 22.5828 58.2932C22.6154 58.1816 22.6604 58.0832 22.7114 57.9981C22.8133 57.8251 22.936 57.6967 23.0586 57.5786C23.1831 57.4629 23.3129 57.3662 23.4432 57.2742C23.5754 57.1863 23.7081 57.1035 23.8432 57.03C24.3831 56.7338 24.9425 56.5254 25.5031 56.3351C26.0649 56.1499 26.6291 55.9861 27.192 55.827C27.3331 55.7871 27.4729 55.746 27.6146 55.7084C27.7556 55.6696 27.8955 55.6285 28.0365 55.5909C28.1781 55.555 28.3162 55.5087 28.4501 55.448C28.5841 55.3861 28.7144 55.3137 28.8342 55.202H28.8347L28.6273 55.5585L27.3509 49.7447C27.6158 50.1989 27.8735 50.6567 28.1272 51.1173C28.3802 51.5779 28.6285 52.042 28.8691 52.5101C29.1097 52.9782 29.3432 53.4504 29.5619 53.9319C29.6709 54.1726 29.777 54.4156 29.8748 54.6639C29.9725 54.9121 30.0644 55.1639 30.1373 55.4312L29.8268 55.2535L33.668 53.8486L34.1468 53.6732L34.3181 54.1998C34.3306 54.2513 34.3389 54.2901 34.3483 54.3335L34.3738 54.4602C34.3898 54.5441 34.4052 54.6274 34.4189 54.7113C34.4467 54.8786 34.4704 55.0452 34.4906 55.2125C34.5309 55.5469 34.5569 55.8826 34.567 56.2199C34.5854 56.8935 34.5445 57.5751 34.391 58.2464C34.3151 58.5814 34.2073 58.913 34.0639 59.2318C33.9175 59.5495 33.735 59.8562 33.5039 60.1276C33.3889 60.2636 33.2639 60.3915 33.1288 60.5084C32.9931 60.6247 32.8485 60.73 32.6967 60.8237C32.5456 60.9181 32.3856 60.9968 32.2239 61.0668C32.0615 61.1362 31.8938 61.19 31.7261 61.2381L31.8778 61.0083L33.0322 72.1354L30.2742 62.2339L30.5942 62.3647L27.4267 64.552L27.6851 64.1892L22.3682 93.087L21.5973 92.5639L21.8159 92.4337L22.0382 92.2971C22.1863 92.2051 22.3339 92.1114 22.4814 92.0164C22.7754 91.8261 23.0681 91.6328 23.3573 91.4343C23.9369 91.0385 24.507 90.6282 25.067 90.2052C26.187 89.3592 27.2679 88.4635 28.302 87.5203C29.3343 86.5759 30.3216 85.5846 31.2413 84.539C31.4748 84.2803 31.6947 84.0112 31.921 83.7468L32.2487 83.3417L32.4123 83.1392L32.5711 82.9326L32.8882 82.52L33.1939 82.0999L33.3468 81.8899L33.4938 81.6758L33.7877 81.2476L33.7427 81.3326C34.0307 80.6203 34.3051 79.8883 34.5646 79.1586C34.8248 78.4272 35.0707 77.6917 35.2971 76.9527C35.5229 76.2132 35.7309 75.4696 35.9033 74.7232C35.9904 74.3499 36.0657 73.9761 36.1285 73.6029C36.1907 73.2302 36.2405 72.857 36.2636 72.4901L36.2713 72.6082C36.2263 72.368 36.1907 72.1423 36.1564 71.9091C36.1226 71.6777 36.0918 71.4462 36.0645 71.2142C36.0106 70.7495 35.9697 70.2831 35.9472 69.8127C35.9253 69.3422 35.9211 68.8683 35.9507 68.3886C35.965 68.149 35.9887 67.9071 36.0266 67.6635C36.0645 67.4199 36.1143 67.174 36.1901 66.9257L37.1288 67.2006C37.0714 67.3915 37.0287 67.5958 36.9973 67.8047C36.9653 68.0136 36.9439 68.2283 36.9315 68.4459C36.9054 68.8804 36.9096 69.3237 36.9309 69.7675C36.9522 70.2119 36.9925 70.6581 37.0453 71.1036C37.0714 71.3264 37.1016 71.5486 37.1342 71.7708C37.1668 71.9913 37.2035 72.2176 37.2432 72.4282L37.2545 72.4884L37.2509 72.5462C37.2254 72.9588 37.1727 73.3604 37.1069 73.7574C37.0405 74.1543 36.9623 74.5467 36.8722 74.9344C36.6945 75.7109 36.4823 76.4736 36.2524 77.2299C36.0219 77.9857 35.773 78.7344 35.5098 79.478C35.3783 79.8495 35.2432 80.2199 35.1045 80.5891C34.9652 80.9594 34.8248 81.3245 34.6749 81.6966L34.6559 81.7429L34.6298 81.7811L34.3264 82.2249L34.1747 82.4466L34.0171 82.6641L33.7018 83.0993L33.3753 83.5258L33.2117 83.7387L33.0434 83.9482L32.7062 84.3666C32.4739 84.6391 32.2481 84.9169 32.0081 85.183C31.0635 86.2599 30.0531 87.2778 28.9977 88.2465C27.9405 89.2134 26.8377 90.1306 25.6945 90.9974C25.1227 91.4308 24.5407 91.8509 23.9475 92.2577C23.6518 92.462 23.3514 92.6605 23.0491 92.8572C22.898 92.955 22.7457 93.0523 22.5917 93.1477L22.3599 93.2907C22.2811 93.3387 22.2059 93.3838 22.1205 93.4336L21.151 94.0001L21.3496 92.9099L26.6178 64.0041L26.6937 63.7275L26.8762 63.6418L30.3731 62.0013L30.6339 61.8792L30.6931 62.1327L33.0316 72.1371L31.4416 61.0616L31.4179 60.8943L31.5939 60.8313C31.8873 60.7265 32.164 60.5876 32.4076 60.4106C32.529 60.3215 32.6434 60.2242 32.7489 60.1195C32.8538 60.0136 32.9492 59.8996 33.0357 59.7793C33.2105 59.5397 33.3433 59.2706 33.447 58.9911C33.5477 58.7093 33.6194 58.4153 33.6633 58.115C33.7528 57.5138 33.7433 56.8929 33.6781 56.2778C33.6449 55.9699 33.5969 55.6627 33.5359 55.3583C33.5051 55.2061 33.4719 55.0545 33.4345 54.9046C33.4162 54.83 33.3966 54.7553 33.3765 54.6812L33.3456 54.5719C33.3356 54.5372 33.3237 54.4972 33.3148 54.4706L33.9655 54.8219L29.9666 55.7136L29.7023 55.7801L29.6561 55.5359C29.6105 55.2935 29.5423 55.0464 29.4671 54.801C29.3918 54.5551 29.3065 54.3103 29.2182 54.0661C29.041 53.5777 28.846 53.0928 28.6445 52.6102C28.4424 52.1282 28.2315 51.6485 28.0158 51.1711C27.7995 50.6937 27.5784 50.218 27.3497 49.7459L29.2051 55.4086L29.2899 55.6667L28.9983 55.7657H28.9977C28.8377 55.7338 28.689 55.7408 28.5432 55.7587C28.3974 55.7767 28.2581 55.8166 28.1207 55.8623C27.8451 55.952 27.5713 56.0457 27.3011 56.1476C26.7594 56.3495 26.2279 56.5769 25.7147 56.8292C25.2033 57.0833 24.7037 57.3593 24.2569 57.6695C24.0341 57.824 23.8249 57.9895 23.6613 58.1625C23.5813 58.2475 23.512 58.3372 23.4729 58.4136C23.4509 58.4518 23.4409 58.4859 23.4343 58.5114C23.4284 58.5369 23.432 58.5513 23.4314 58.5502L23.4361 58.6115C23.4497 59.3875 23.4515 60.1635 23.4385 60.9395C23.4243 61.7154 23.3994 62.4914 23.3763 63.2674C23.3532 64.0434 23.3383 64.8194 23.3212 65.5954C23.3057 66.3714 23.285 67.1473 23.2595 67.9233V67.9239L23.2489 68.0246L23.2074 68.0645C22.9348 68.329 22.69 68.6166 22.4518 68.9094L21.7383 69.7883C21.5013 70.0817 21.266 70.3768 21.0319 70.6731C20.7978 70.9694 20.5655 71.2662 20.3368 71.5666L19.7809 72.2957L19.7803 71.3692L19.7768 65.9501L19.7892 60.5309C19.7934 58.7244 19.7892 56.9184 19.775 55.1118C19.7626 53.3052 19.727 51.4992 19.6974 49.6926C19.6814 48.7893 19.666 47.886 19.6553 46.9827C19.647 46.0795 19.6322 45.1762 19.6393 44.2729C19.6476 43.3696 19.6701 42.4663 19.6719 41.5636L19.6784 38.8543L19.7045 28.016L19.7063 27.3337L20.3593 27.5687C20.8767 27.755 21.3608 27.9847 21.8284 28.2347C22.2954 28.4847 22.744 28.7561 23.1831 29.0385C24.0595 29.6044 24.8957 30.2143 25.7105 30.8462C27.339 32.1112 28.8869 33.4583 30.3986 34.839C31.9092 36.2208 33.3806 37.6397 34.8254 39.0829C35.5478 39.8045 36.263 40.5324 36.9724 41.2667C37.6817 42.0016 38.3834 42.7388 39.0791 43.4923L39.1952 43.6178L39.2024 43.7885L39.9887 62.1633L40 62.4301L39.7719 62.58C39.4418 62.7964 39.1407 63.1193 38.8764 63.4752C38.6109 63.8322 38.3775 64.2251 38.1653 64.6313C37.9537 65.0387 37.7635 65.4611 37.5905 65.8916C37.504 66.1069 37.4222 66.3239 37.3445 66.5426C37.306 66.652 37.2681 66.7614 37.2319 66.8707C37.1964 66.9789 37.1596 67.0929 37.13 67.1942L36.1872 66.9344Z" fill="#EEC709"/>
<path d="M3.92455 63.2358C4.23567 63.4887 4.52842 63.763 4.81346 64.0448C4.95628 64.1854 5.09673 64.3284 5.23302 64.4748L5.43807 64.6941L5.63955 64.9168C6.17171 65.5158 6.67128 66.143 7.13765 66.794C8.07041 68.0966 8.86332 69.4969 9.51281 70.9598C9.83578 71.6918 10.1137 72.4429 10.3591 73.2033C10.4716 73.5869 10.5914 73.9677 10.6826 74.3565L10.7549 74.647L10.7911 74.7923L10.8219 74.9387L10.9422 75.5249C11.085 76.3089 11.1976 77.0988 11.2397 77.8933C11.2936 78.6861 11.2829 79.4817 11.2296 80.271H11.1247C10.9937 78.7005 10.7703 77.152 10.4035 75.636L10.2595 75.0695L10.2239 74.9277L10.183 74.7871L10.1019 74.5064C10.0011 74.1303 9.87489 73.7611 9.75815 73.3896C9.50688 72.6518 9.23251 71.9215 8.92554 71.204C8.30508 69.7712 7.57677 68.3807 6.73824 67.0504C6.32045 66.3843 5.88193 65.7287 5.4114 65.0939C4.94383 64.4562 4.45316 63.833 3.92455 63.2358Z" fill="#EEC709"/>
<path d="M16.1144 92.379L13.0204 73.999C12.272 69.5538 9.94601 65.5506 6.59543 62.4542C3.50796 59.6008 4.94147 54.8639 4.94147 54.8639C4.94147 54.8639 13.9579 53.5243 16.5061 58.3092C19.0543 63.0942 16.1138 68.2622 16.1138 68.2622L18.8582 71.1335V28.0673C18.6745 28.1199 18.4926 28.1737 18.3124 28.2287C8.09294 31.3402 1.00776 40.4327 0.435306 50.8705L0.0613724 57.6912C-0.66042 70.8459 5.01436 83.6216 15.5052 91.9045C15.7055 92.0625 15.9088 92.2211 16.1144 92.379Z" fill="#EEC709"/>
<path d="M19.5376 25.9818V0L22.8882 3.27173L21.9026 20.7854L24.071 7.12066L25.6477 9.43001L22.8882 27.3288L19.5376 25.9818Z" fill="#EEC709"/>
<path d="M13.6517 8.50886L16.0172 27.5621L18.3822 26.0225V3.31238L16.5094 5.52573V19.575L14.9328 6.87271L13.6517 8.50886Z" fill="#EEC709"/>
</svg>
